<svg width="130" height="130" viewBox="0 0 130 130" fill="none" xmlns="http://www.w3.org/2000/svg">
<g clip-path="url(#clip0_99_13)">
<path d="M45.3657 70.6494L49.6754 57.7203H81.28L85.5897 70.6494M81.28 85.015C80.137 85.015 79.0408 84.5609 78.2325 83.7527C77.4243 82.9445 76.9702 81.8483 76.9702 80.7053C76.9702 79.5623 77.4243 78.4661 78.2325 77.6579C79.0408 76.8497 80.137 76.3956 81.28 76.3956C82.423 76.3956 83.5192 76.8497 84.3274 77.6579C85.1356 78.4661 85.5897 79.5623 85.5897 80.7053C85.5897 81.8483 85.1356 82.9445 84.3274 83.7527C83.5192 84.5609 82.423 85.015 81.28 85.015ZM49.6754 85.015C48.5324 85.015 47.4362 84.5609 46.628 83.7527C45.8197 82.9445 45.3657 81.8483 45.3657 80.7053C45.3657 79.5623 45.8197 78.4661 46.628 77.6579C47.4362 76.8497 48.5324 76.3956 49.6754 76.3956C50.8184 76.3956 51.9146 76.8497 52.7228 77.6579C53.531 78.4661 53.9851 79.5623 53.9851 80.7053C53.9851 81.8483 53.531 82.9445 52.7228 83.7527C51.9146 84.5609 50.8184 85.015 49.6754 85.015ZM85.3598 56.2838C84.7852 54.6174 83.1762 53.4106 81.28 53.4106H49.6754C47.7791 53.4106 46.1702 54.6174 45.5955 56.2838L39.6194 73.5225V96.5075C39.6194 97.2695 39.9221 98.0003 40.4609 98.5391C40.9997 99.0779 41.7305 99.3806 42.4925 99.3806H45.3657C46.1277 99.3806 46.8585 99.0779 47.3973 98.5391C47.9361 98.0003 48.2388 97.2695 48.2388 96.5075V93.6344H82.7165V96.5075C82.7165 97.2695 83.0192 98.0003 83.5581 98.5391C84.0969 99.0779 84.8277 99.3806 85.5897 99.3806H88.4628C89.2248 99.3806 89.9556 99.0779 90.4944 98.5391C91.0333 98.0003 91.336 97.2695 91.336 96.5075V73.5225L85.3598 56.2838Z" fill="#FF0000"/>
<path d="M57.9405 28.9212C57.576 28.648 57.1345 28.497 56.679 28.4895C56.2235 28.4821 55.7773 28.6187 55.404 28.8798C55.0307 29.1408 54.7494 29.5131 54.6002 29.9435C54.4509 30.3739 54.4413 30.8404 54.5728 31.2766C54.9509 32.538 54.9934 33.8762 54.6961 35.159C54.3998 36.4342 53.7733 37.6091 52.8793 38.5656C52.8197 38.6299 52.7641 38.6978 52.7127 38.7689C51.4236 40.536 44.1475 50.8812 50.6774 62.0462L50.7423 62.1521C52.3285 64.5376 54.5011 66.4756 57.0516 67.78C59.5713 69.0703 62.3816 69.6879 65.2101 69.5731C68.2178 69.6257 71.1878 68.8992 73.8316 67.4643C76.5213 66.0015 78.7865 63.8675 80.4069 61.2697C83.2208 56.5113 82.9678 51.4154 81.6787 47.3384C80.4177 43.3413 78.0449 39.9542 76.0399 38.4661C75.7249 38.2328 75.3524 38.0896 74.9623 38.0516C74.5721 38.0136 74.179 38.0824 73.8249 38.2505C73.4708 38.4187 73.1691 38.6799 72.952 39.0063C72.7348 39.3326 72.6105 39.7119 72.5922 40.1034C72.4473 43.1985 71.8071 45.621 70.8748 47.5244C70.3947 42.3182 68.4372 38.4488 66.0645 35.5764C63.5836 32.57 60.5187 30.6017 58.8771 29.5462C58.5597 29.3483 58.2481 29.1413 57.9427 28.9255L57.9405 28.9212Z" fill="#FF0000"/>
<path d="M64.9998 16.397C91.849 16.397 113.603 38.1503 113.603 64.9995C113.603 91.8488 91.8452 113.603 64.9998 113.603C38.1624 113.603 16.3972 91.8486 16.3972 64.9995C16.3974 38.1506 38.1625 16.3971 64.9998 16.397ZM95.8376 43.5288L43.5291 95.8423L42.2156 97.1558L43.7771 98.1636C49.9056 102.117 57.0123 104.277 64.2947 104.409L64.9998 104.416C86.3946 104.416 103.858 87.2816 104.398 66.0151L104.411 64.9995C104.412 57.4709 102.242 50.1012 98.1589 43.7759L97.1511 42.2153L95.8376 43.5288ZM64.9998 25.5845C43.2659 25.5846 25.5849 43.2657 25.5847 64.9995L25.5906 65.7046C25.7202 72.9877 27.8813 80.0953 31.8367 86.2231L32.8445 87.7837L87.7878 32.8403L86.2205 31.8345C80.0919 27.9007 72.8165 25.5845 64.9998 25.5845Z" stroke="#FF0000" stroke-width="3"/>
</g>
<defs>
<clipPath id="clip0_99_13">
<rect width="130" height="130" fill="white"/>
</clipPath>
</defs>
</svg>
