<svg width="123" height="103" viewBox="0 0 123 103" fill="none" xmlns="http://www.w3.org/2000/svg">
<g clip-path="url(#clip0_93_67)">
<rect width="123" height="103" fill="#FFFDF6"/>
<path d="M42.1078 30.0415H50.4907C51.2492 30.0415 51.8478 30.2899 52.34 30.7825C52.8335 31.2766 53.0826 31.8763 53.0844 32.6315C53.086 33.3837 52.8387 33.9831 52.3415 34.479C51.9065 34.9128 51.3937 35.1553 50.7696 35.2068L50.4938 35.2171H42.7425L42.5645 35.7245L39.0425 45.7595L38.6896 46.7667H58.3711C59.1677 46.7667 59.9221 46.9147 60.6399 47.2105C61.27 47.4702 61.8292 47.8228 62.3215 48.2696L62.5277 48.4664L71.2829 57.1996C70.9174 57.6028 70.6167 58.0611 70.3827 58.5724C70.0731 59.2487 69.9008 59.9703 69.8608 60.7305L69.8519 61.0589V61.0618C69.852 62.6542 70.4195 64.0332 71.5424 65.1533C72.6652 66.2733 74.0466 66.8375 75.6412 66.8352C76.9231 66.8352 78.0886 66.4485 79.1142 65.6813C79.9532 65.0538 80.5595 64.2645 80.9323 63.3294C81.3554 63.3874 81.773 63.4274 82.1854 63.4464C82.8065 63.4747 83.4423 63.4612 84.091 63.4049L84.1117 63.4034L84.1325 63.4005C84.5282 63.3441 84.897 63.2872 85.2387 63.2304C85.4231 63.1998 85.6139 63.1615 85.8097 63.1165L86.4131 62.9597L86.4221 62.9582C87.3666 62.6755 88.1928 62.752 88.9504 63.1519C89.3258 63.3502 89.5712 63.5839 89.7261 63.8384C89.8805 64.0921 89.9722 64.4115 89.9722 64.8249V77.7858C89.9722 78.9812 89.5613 79.9745 88.7281 80.8078C87.896 81.6394 86.9025 82.0477 85.7029 82.0459C84.5009 82.0439 83.5064 81.6344 82.6762 80.8063C81.9501 80.0818 81.5441 79.2313 81.4514 78.2251L81.4306 77.7843V75.3568H39.6713V77.7858C39.6713 78.9812 39.2604 79.9745 38.4272 80.8078C37.6991 81.5354 36.8475 81.9397 35.8424 82.028L35.402 82.0459C34.2037 82.0459 33.2096 81.6368 32.3768 80.8063C31.5442 79.9758 31.1318 78.9838 31.1296 77.7858V53.8699C31.1296 53.5161 31.1544 53.1614 31.2053 52.8063C31.2548 52.4611 31.3281 52.1474 31.4218 51.8642L38.1291 32.8816L38.1335 32.8682C38.4176 32.0183 38.9195 31.3426 39.6551 30.8225C40.3019 30.365 41.0035 30.1098 41.7726 30.0533L42.1078 30.0415ZM45.4637 55.287C43.8612 55.282 42.4768 55.8485 41.3588 56.9763C40.2461 58.099 39.679 59.4736 39.6713 61.0574C39.6636 62.6472 40.2332 64.0274 41.3619 65.1533C42.4895 66.2781 43.8705 66.8442 45.4607 66.8352L45.4651 66.8366L45.4637 66.8352C47.0581 66.8345 48.4386 66.2701 49.561 65.1533C50.685 64.0347 51.2524 62.6551 51.25 61.0604C51.2474 59.4674 50.6816 58.0898 49.5625 56.9733C48.4433 55.8571 47.0618 55.2923 45.4637 55.287Z" fill="#79D7BE" stroke="#344CB7"/>
<path d="M69.0926 19.6914H78.9095C80.1363 19.6917 81.3159 20.1475 82.221 20.965L82.3989 21.1336L97.034 35.7318C98.105 36.8006 98.7068 38.25 98.7068 39.7613C98.7068 41.1784 98.1774 42.541 97.2282 43.5865L97.034 43.7907L86.4192 54.3788C85.3477 55.4471 83.8947 56.0474 82.3797 56.0474C80.9589 56.0474 79.5929 55.5194 78.5448 54.5725L78.3401 54.3788L63.7051 39.7805C62.7795 38.8574 62.2596 37.6054 62.2593 36.2999V26.5076C62.2593 24.6998 62.9797 22.9667 64.2613 21.6884C65.4627 20.4898 67.0652 19.7837 68.7544 19.7003L69.0926 19.6914ZM71.9398 24.8035C70.7906 24.8032 69.6832 25.2355 68.8405 26.015C67.9978 26.7945 67.4824 27.8643 67.3961 29.0075L67.3946 29.0223V29.0385L67.3843 29.3225V29.3477C67.3843 30.2463 67.6518 31.1253 68.1525 31.8727C68.6529 32.6196 69.364 33.2017 70.196 33.5457C71.0281 33.8895 71.9445 33.9798 72.8282 33.8045C73.7118 33.6291 74.5236 33.1961 75.1608 32.5605C75.7979 31.9249 76.2321 31.1152 76.4079 30.2338C76.5836 29.3524 76.4931 28.4382 76.1484 27.6082C75.8036 26.7783 75.22 26.0689 74.4712 25.5698C73.8157 25.1328 73.059 24.8732 72.2765 24.8154L71.9398 24.8035Z" fill="#FFEB00" stroke="#344CB7"/>
</g>
<defs>
<clipPath id="clip0_93_67">
<rect width="123" height="103" fill="white"/>
</clipPath>
</defs>
</svg>
