<svg width="130" height="130" viewBox="0 0 130 130" fill="none" xmlns="http://www.w3.org/2000/svg">
<g clip-path="url(#clip0_99_20)">
<path d="M58.8581 58.8332L50.9092 52.5216C49.9842 51.7446 49.5217 51.3592 49.6297 50.9584C49.7345 50.5576 50.3296 50.4527 51.5167 50.2492L55.1334 49.6141C56.5117 49.3736 56.6843 49.019 56.0707 47.7641L52.2351 39.9324C51.4766 38.3784 51.0942 37.6014 51.4427 37.2746C51.7911 36.9446 52.5372 37.3732 54.0327 38.2304L60.4799 41.9366C61.5899 42.5748 61.7009 42.544 62.2744 41.3908L64.8767 36.1584C65.5551 34.7956 65.8942 34.1141 66.3444 34.1696C66.7977 34.2251 66.9611 34.9713 67.291 36.4575L69.3877 45.9541C69.6652 47.1998 69.9858 47.3725 71.1575 46.8668L78.1536 43.8513C79.3715 43.3271 79.9789 43.0651 80.2873 43.3672C80.5956 43.6694 80.3489 44.2891 79.8556 45.5256L74.2686 58.8332M66.5233 58.8332L64.9816 54.2082M34.1667 68.0832H48.7972C51.1652 69.628 53.1508 69.8407 55.673 71.1234C58.8026 72.9549 60.2918 75.7916 60.2764 80.4166C60.2764 83.4999 60.6772 86.6449 59.7029 88.3407C58.5867 90.2832 51.7325 89.6604 51.1158 89.6604C51.1158 93.0582 48.6307 95.8332 44.9492 95.8332C41.5698 95.8332 38.8102 93.0582 38.8102 89.6604M48.7972 68.0801C45.6398 66.0205 43.9101 62.1848 41.9737 59.0768C39.2851 54.4518 35.6036 52.9718 34.2037 52.6789M38.8102 89.6604C38.8119 88.0313 39.458 86.469 40.6077 85.3147C41.7573 84.1605 43.317 83.508 44.9461 83.4999C48.6276 83.4999 51.1127 86.4291 51.1127 89.6604M38.8102 89.6604H34.1667M81.2061 68.074H95.8334M81.2061 68.074C78.835 69.6218 76.8524 69.8315 74.3303 71.1172C71.1976 72.9487 69.7114 75.7854 69.7237 80.4135C69.7237 83.4968 69.3229 86.6418 70.3003 88.3376C71.4165 90.2801 78.2707 89.6573 78.8874 89.6573M81.2061 68.074C84.3603 66.0112 86.0932 62.1756 88.0264 59.0706C90.7151 54.4456 94.3997 52.9626 95.7964 52.6666M78.8874 89.6573C78.8874 93.0582 81.3726 95.8332 85.0541 95.8332C88.4303 95.8332 91.1899 93.0582 91.1899 89.6573M78.8874 89.6573C78.8874 86.426 81.3726 83.4968 85.0541 83.4968C86.6832 83.505 88.2428 84.1574 89.3925 85.3117C90.5421 86.4659 91.1883 88.0282 91.1899 89.6573M91.1899 89.6573H95.8334" stroke="#FF0000" stroke-width="3" stroke-linecap="round" stroke-linejoin="round"/>
<path d="M64.9998 16.397C91.849 16.397 113.603 38.1503 113.603 64.9995C113.603 91.8488 91.8452 113.603 64.9998 113.603C38.1624 113.603 16.3972 91.8486 16.3972 64.9995C16.3974 38.1506 38.1625 16.3971 64.9998 16.397ZM95.8376 43.5288L43.5291 95.8423L42.2156 97.1558L43.7771 98.1636C49.9056 102.117 57.0123 104.277 64.2947 104.409L64.9998 104.416C86.3946 104.416 103.858 87.2816 104.398 66.0151L104.411 64.9995C104.412 57.4709 102.242 50.1013 98.1589 43.7759L97.1511 42.2153L95.8376 43.5288ZM64.9998 25.5845C43.2659 25.5846 25.5849 43.2657 25.5847 64.9995L25.5906 65.7046C25.7202 72.9877 27.8813 80.0953 31.8367 86.2231L32.8445 87.7837L87.7878 32.8403L86.2205 31.8345C80.0919 27.9007 72.8165 25.5845 64.9998 25.5845Z" stroke="#FF0000" stroke-width="3"/>
</g>
<defs>
<clipPath id="clip0_99_20">
<rect width="130" height="130" fill="white"/>
</clipPath>
</defs>
</svg>
