<svg width="130" height="130" viewBox="0 0 130 130" fill="none" xmlns="http://www.w3.org/2000/svg">
<g clip-path="url(#clip0_99_28)">
<path d="M32 98V88.7583C34.0611 88.7583 35.5939 87.9882 36.5984 86.4479C37.6029 84.9076 39.7042 84.1375 42.9021 84.1375C46.1001 84.1375 48.1883 84.9076 49.1668 86.4479C50.1452 87.9882 51.6639 88.7583 53.7229 88.7583C55.7818 88.7583 57.3005 87.9882 58.279 86.4479C59.2575 84.9076 61.3457 84.1375 64.5436 84.1375C67.6353 84.1375 69.7376 84.9076 70.8506 86.4479C71.9636 87.9882 73.4953 88.7583 75.4458 88.7583C77.5069 88.7583 79.0256 87.9882 80.0019 86.4479C80.9782 84.9076 83.0664 84.1375 86.2665 84.1375C89.4666 84.1375 91.5549 84.9076 92.5312 86.4479C93.5075 87.9882 95.0262 88.7583 97.0873 88.7583V98C93.9414 98 91.8532 97.2299 90.8226 95.6896C89.7921 94.1493 88.2734 93.3792 86.2665 93.3792C84.2597 93.3792 82.741 94.1493 81.7104 95.6896C80.6799 97.2299 78.5916 98 75.4458 98C72.2999 98 70.1986 97.2299 69.1421 95.6896C68.0855 94.1493 66.5527 93.3792 64.5436 93.3792C62.4825 93.3792 60.9638 94.1493 59.9875 95.6896C59.0112 97.2299 56.923 98 53.7229 98C50.5228 98 48.4345 97.2299 47.4582 95.6896C46.4819 94.1493 44.9632 93.3792 42.9021 93.3792C40.8953 93.3792 39.3766 94.1493 38.346 95.6896C37.3155 97.2299 35.2001 98 32 98Z" fill="#FF0000"/>
<path d="M32 80.7146V71.4729C34.0611 71.4729 35.5939 70.7028 36.5984 69.1625C37.6029 67.6222 39.7042 66.8521 42.9021 66.8521C46.1001 66.8521 48.1883 67.6222 49.1668 69.1625C50.1452 70.7028 51.6639 71.4729 53.7229 71.4729C55.7818 71.4729 57.3005 70.7028 58.279 69.1625C59.2575 67.6222 61.3457 66.8521 64.5436 66.8521C67.6353 66.8521 69.7376 67.6222 70.8506 69.1625C71.9636 70.7028 73.4953 71.4729 75.4458 71.4729C77.5069 71.4729 79.0256 70.7028 80.0019 69.1625C80.9782 67.6222 83.0664 66.8521 86.2665 66.8521C89.4666 66.8521 91.5549 67.6222 92.5312 69.1625C93.5075 70.7028 95.0262 71.4729 97.0873 71.4729V80.7146C93.9414 80.7146 91.8532 79.9445 90.8226 78.4042C89.7921 76.8639 88.2734 76.0938 86.2665 76.0938C84.2597 76.0938 82.741 76.8639 81.7104 78.4042C80.6799 79.9445 78.5916 80.7146 75.4458 80.7146C72.2999 80.7146 70.1986 79.9445 69.1421 78.4042C68.0855 76.8639 66.5527 76.0938 64.5436 76.0938C62.4825 76.0938 60.9638 76.8639 59.9875 78.4042C59.0112 79.9445 56.923 80.7146 53.7229 80.7146C50.5228 80.7146 48.4345 79.9445 47.4582 78.4042C46.4819 76.8639 44.9632 76.0938 42.9021 76.0938C40.8953 76.0938 39.3766 76.8639 38.346 78.4042C37.3155 79.9445 35.2001 80.7146 32 80.7146Z" fill="#FF0000"/>
<path d="M46.6721 59.7805L50.4604 48.4157H78.241L82.0293 59.7805M78.241 72.4081C77.2363 72.4081 76.2727 72.0089 75.5623 71.2985C74.8518 70.5881 74.4527 69.6245 74.4527 68.6198C74.4527 67.6151 74.8518 66.6515 75.5623 65.9411C76.2727 65.2306 77.2363 64.8315 78.241 64.8315C79.2457 64.8315 80.2093 65.2306 80.9197 65.9411C81.6301 66.6515 82.0293 67.6151 82.0293 68.6198C82.0293 69.6245 81.6301 70.5881 80.9197 71.2985C80.2093 72.0089 79.2457 72.4081 78.241 72.4081ZM50.4604 72.4081C49.4557 72.4081 48.4921 72.0089 47.7817 71.2985C47.0712 70.5881 46.6721 69.6245 46.6721 68.6198C46.6721 67.6151 47.0712 66.6515 47.7817 65.9411C48.4921 65.2306 49.4557 64.8315 50.4604 64.8315C51.4651 64.8315 52.4286 65.2306 53.1391 65.9411C53.8495 66.6515 54.2486 67.6151 54.2486 68.6198C54.2486 69.6245 53.8495 70.5881 53.1391 71.2985C52.4286 72.0089 51.4651 72.4081 50.4604 72.4081ZM81.8272 47.153C81.3221 45.6882 79.9078 44.6274 78.241 44.6274H50.4604C48.7935 44.6274 47.3793 45.6882 46.8742 47.153L41.6211 62.306V82.5101C41.6211 83.1799 41.8872 83.8223 42.3608 84.2959C42.8344 84.7695 43.4768 85.0356 44.1466 85.0356H46.6721C47.3419 85.0356 47.9843 84.7695 48.4579 84.2959C48.9315 83.8223 49.1976 83.1799 49.1976 82.5101V79.9846H79.5037V82.5101C79.5037 83.1799 79.7698 83.8223 80.2434 84.2959C80.7171 84.7695 81.3594 85.0356 82.0293 85.0356H84.5548C85.2246 85.0356 85.8669 84.7695 86.3406 84.2959C86.8142 83.8223 87.0803 83.1799 87.0803 82.5101V62.306L81.8272 47.153Z" fill="#FF0000"/>
<path d="M64.9998 16.397C91.849 16.397 113.603 38.1503 113.603 64.9995C113.603 91.8488 91.8452 113.603 64.9998 113.603C38.1624 113.603 16.3972 91.8486 16.3972 64.9995C16.3974 38.1506 38.1625 16.3971 64.9998 16.397ZM95.8376 43.5288L43.5291 95.8423L42.2156 97.1558L43.7771 98.1636C49.9056 102.117 57.0123 104.277 64.2947 104.409L64.9998 104.416C86.3946 104.416 103.858 87.2816 104.398 66.0151L104.411 64.9995C104.412 57.4709 102.242 50.1012 98.1589 43.7759L97.1511 42.2153L95.8376 43.5288ZM64.9998 25.5845C43.2659 25.5846 25.5849 43.2657 25.5847 64.9995L25.5906 65.7046C25.7202 72.9877 27.8813 80.0953 31.8367 86.2231L32.8445 87.7837L87.7878 32.8403L86.2205 31.8345C80.0919 27.9007 72.8165 25.5845 64.9998 25.5845Z" stroke="#FF0000" stroke-width="3"/>
</g>
<defs>
<clipPath id="clip0_99_28">
<rect width="130" height="130" fill="white"/>
</clipPath>
</defs>
</svg>
