<svg width="141" height="106" viewBox="0 0 141 106" fill="none" xmlns="http://www.w3.org/2000/svg">
<g clip-path="url(#clip0_93_74)">
<path d="M82.3735 21.3474C93.9148 21.3474 103.152 30.5104 103.152 41.9585C103.152 53.4067 93.9148 62.5697 82.3735 62.5697C70.8321 62.5697 61.5945 53.4067 61.5945 41.9585C61.5945 30.5104 70.8321 21.3474 82.3735 21.3474ZM61.5945 64.6645L63.499 62.7752L64.0209 63.2167C69.139 67.5481 75.6457 69.9289 82.3735 69.9308C89.8525 69.9308 97.0247 66.9831 102.313 61.7373C107.602 56.4914 110.573 49.3772 110.573 41.9585C110.573 34.5399 107.602 27.4257 102.313 22.1798C97.0247 16.934 89.8525 13.9863 82.3735 13.9863C74.8944 13.9863 67.7222 16.934 62.4337 22.1798C57.1451 27.4257 54.1735 34.5399 54.1735 41.9585C54.1735 48.8867 56.7321 55.2564 60.9422 60.1643L61.3858 60.682L59.4826 62.5697H55.9649L34.4438 83.9169L40.0735 89.501L61.5945 68.1538V64.6645Z" fill="#79D7BE" stroke="#344CB7"/>
<path d="M71.6128 44.1918C73.5117 44.1918 75.0521 45.7184 75.0521 47.6021C75.0521 49.4856 73.5117 51.0123 71.6128 51.0123C69.7139 51.012 68.1746 49.4855 68.1746 47.6021C68.1747 45.7185 69.7139 44.192 71.6128 44.1918ZM92.2379 44.1918C94.1367 44.192 95.676 45.7185 95.676 47.6021C95.676 49.4855 94.1367 51.012 92.2379 51.0123C90.339 51.0123 88.7986 49.4856 88.7986 47.6021C88.7986 45.7184 90.339 44.1918 92.2379 44.1918ZM84.7155 31.7383L85.1547 32.0647L92.0351 37.1843L92.0597 37.203L92.0888 37.2102L97.5545 38.566C98.9927 38.9227 100.028 40.1489 100.147 41.5938L100.159 41.8813V47.9859L98.9141 48.295L97.6719 48.6027C97.7332 48.2727 97.7663 47.938 97.766 47.6021L97.7589 47.3203C97.6109 44.4227 95.196 42.1188 92.2379 42.1186C89.1846 42.1186 86.7085 44.5733 86.7085 47.6021C86.7085 48.1705 86.8001 48.7179 86.9622 49.2339H76.8872C77.053 48.7053 77.1428 48.1562 77.1422 47.6021L77.1351 47.3203C76.9871 44.4225 74.5709 42.1186 71.6128 42.1186C68.5595 42.1188 66.0845 44.5734 66.0845 47.6021C66.0845 47.735 66.0897 47.8668 66.0991 47.9974L64.5874 46.4979V38.1174L64.9685 37.6631L69.4531 32.3263L69.9473 31.7383H84.7155ZM71.4416 35.055L68.4529 38.6134L68.25 38.855H86.0215L86.065 38.8119L87.0912 37.7953L87.2114 37.6746L87.0751 37.5726L83.6589 35.0321L83.6197 35.0019H71.4866L71.4416 35.055Z" fill="#FFEB00" stroke="#344CB7" stroke-width="0.2"/>
</g>
<defs>
<clipPath id="clip0_93_74">
<path d="M0 5C0 2.23858 2.23858 0 5 0H136C138.761 0 141 2.23858 141 5V101C141 103.761 138.761 106 136 106H5C2.23858 106 0 103.761 0 101V5Z" fill="white"/>
</clipPath>
</defs>
</svg>
