<svg width="90" height="82" viewBox="0 0 90 82" fill="none" xmlns="http://www.w3.org/2000/svg">
<g clip-path="url(#clip0_115_518)">
<path d="M53.3739 13.3474C64.9153 13.3474 74.1529 22.5104 74.1529 33.9585C74.1529 45.4067 64.9153 54.5697 53.3739 54.5697C41.8326 54.5697 32.595 45.4067 32.595 33.9585C32.595 22.5104 41.8326 13.3474 53.3739 13.3474ZM32.595 56.6645L34.4995 54.7752L35.0214 55.2167C40.1395 59.5481 46.6462 61.9289 53.3739 61.9308C60.853 61.9308 68.0252 58.9831 73.3137 53.7373C78.6023 48.4914 81.5739 41.3772 81.5739 33.9585C81.5739 26.5399 78.6023 19.4257 73.3137 14.1798C68.0252 8.93401 60.853 5.98633 53.3739 5.98633C45.8949 5.98633 38.7227 8.93401 33.4342 14.1798C28.1456 19.4257 25.1739 26.5399 25.1739 33.9585C25.1739 40.8867 27.7326 47.2564 31.9427 52.1643L32.3863 52.682L30.4831 54.5697H26.9654L5.44434 75.9169L11.0739 81.501L32.595 60.1538V56.6645Z" fill="#79D7BE" stroke="#344CB7"/>
<path d="M42.6133 36.1918C44.5122 36.1918 46.0526 37.7184 46.0526 39.6021C46.0526 41.4856 44.5122 43.0123 42.6133 43.0123C40.7144 43.012 39.1751 41.4855 39.1751 39.6021C39.1752 37.7185 40.7144 36.192 42.6133 36.1918ZM63.2384 36.1918C65.1372 36.192 66.6765 37.7185 66.6765 39.6021C66.6765 41.4855 65.1372 43.012 63.2384 43.0123C61.3395 43.0123 59.7991 41.4856 59.7991 39.6021C59.7991 37.7184 61.3395 36.1918 63.2384 36.1918ZM55.716 23.7383L56.1552 24.0647L63.0355 29.1843L63.0602 29.203L63.0893 29.2102L68.555 30.566C69.9932 30.9227 71.0282 32.1489 71.1479 33.5938L71.1597 33.8813V39.9859L69.9146 40.295L68.6724 40.6027C68.7337 40.2727 68.7668 39.938 68.7665 39.6021L68.7594 39.3203C68.6114 36.4227 66.1965 34.1188 63.2384 34.1186C60.1851 34.1186 57.709 36.5733 57.709 39.6021C57.709 40.1705 57.8006 40.7179 57.9627 41.2339H47.8877C48.0535 40.7053 48.1433 40.1562 48.1427 39.6021L48.1356 39.3203C47.9876 36.4225 45.5714 34.1186 42.6133 34.1186C39.5599 34.1188 37.085 36.5734 37.085 39.6021C37.085 39.735 37.0902 39.8668 37.0996 39.9974L35.5879 38.4979V30.1174L35.969 29.6631L40.4536 24.3263L40.9478 23.7383H55.716ZM42.4421 27.055L39.4534 30.6134L39.2505 30.855H57.022L57.0655 30.8119L58.0916 29.7953L58.2119 29.6746L58.0756 29.5726L54.6594 27.0321L54.6202 27.0019H42.4871L42.4421 27.055Z" fill="#FFEB00" stroke="#344CB7" stroke-width="0.2"/>
</g>
<defs>
<clipPath id="clip0_115_518">
<rect width="90" height="82" fill="white"/>
</clipPath>
</defs>
</svg>
