<svg width="81" height="68" viewBox="0 0 81 68" fill="none" xmlns="http://www.w3.org/2000/svg">
<path d="M59.084 24.8745V59.0835H5.91699V24.8745H59.084ZM15.75 50.604H38.417V44.187H15.75V50.604ZM15.75 39.771H49.25V33.354H15.75V39.771ZM59.084 5.9165V18.4585H5.91699V5.9165H59.084Z" fill="#79D7BE" stroke="#344CB7"/>
<mask id="path-2-inside-1_115_496" fill="white">
<path d="M47.5556 18.5L50.2222 10.625H69.7778L72.4444 18.5M69.7778 27.25C69.0705 27.25 68.3923 26.9734 67.8922 26.4812C67.3921 25.9889 67.1111 25.3212 67.1111 24.625C67.1111 23.9288 67.3921 23.2611 67.8922 22.7688C68.3923 22.2766 69.0705 22 69.7778 22C70.485 22 71.1633 22.2766 71.6634 22.7688C72.1635 23.2611 72.4444 23.9288 72.4444 24.625C72.4444 25.3212 72.1635 25.9889 71.6634 26.4812C71.1633 26.9734 70.485 27.25 69.7778 27.25ZM50.2222 27.25C49.515 27.25 48.8367 26.9734 48.3366 26.4812C47.8365 25.9889 47.5556 25.3212 47.5556 24.625C47.5556 23.9288 47.8365 23.2611 48.3366 22.7688C48.8367 22.2766 49.515 22 50.2222 22C50.9295 22 51.6077 22.2766 52.1078 22.7688C52.6079 23.2611 52.8889 23.9288 52.8889 24.625C52.8889 25.3212 52.6079 25.9889 52.1078 26.4812C51.6077 26.9734 50.9295 27.25 50.2222 27.25ZM72.3022 9.75C71.9467 8.735 70.9511 8 69.7778 8H50.2222C49.0489 8 48.0533 8.735 47.6978 9.75L44 20.25V34.25C44 34.7141 44.1873 35.1593 44.5207 35.4874C44.8541 35.8156 45.3063 36 45.7778 36H47.5556C48.0271 36 48.4792 35.8156 48.8126 35.4874C49.146 35.1593 49.3333 34.7141 49.3333 34.25V32.5H70.6667V34.25C70.6667 34.7141 70.854 35.1593 71.1874 35.4874C71.5208 35.8156 71.9729 36 72.4444 36H74.2222C74.6937 36 75.1459 35.8156 75.4793 35.4874C75.8127 35.1593 76 34.7141 76 34.25V20.25L72.3022 9.75Z"/>
</mask>
<path d="M47.5556 18.5L50.2222 10.625H69.7778L72.4444 18.5M69.7778 27.25C69.0705 27.25 68.3923 26.9734 67.8922 26.4812C67.3921 25.9889 67.1111 25.3212 67.1111 24.625C67.1111 23.9288 67.3921 23.2611 67.8922 22.7688C68.3923 22.2766 69.0705 22 69.7778 22C70.485 22 71.1633 22.2766 71.6634 22.7688C72.1635 23.2611 72.4444 23.9288 72.4444 24.625C72.4444 25.3212 72.1635 25.9889 71.6634 26.4812C71.1633 26.9734 70.485 27.25 69.7778 27.25ZM50.2222 27.25C49.515 27.25 48.8367 26.9734 48.3366 26.4812C47.8365 25.9889 47.5556 25.3212 47.5556 24.625C47.5556 23.9288 47.8365 23.2611 48.3366 22.7688C48.8367 22.2766 49.515 22 50.2222 22C50.9295 22 51.6077 22.2766 52.1078 22.7688C52.6079 23.2611 52.8889 23.9288 52.8889 24.625C52.8889 25.3212 52.6079 25.9889 52.1078 26.4812C51.6077 26.9734 50.9295 27.25 50.2222 27.25ZM72.3022 9.75C71.9467 8.735 70.9511 8 69.7778 8H50.2222C49.0489 8 48.0533 8.735 47.6978 9.75L44 20.25V34.25C44 34.7141 44.1873 35.1593 44.5207 35.4874C44.8541 35.8156 45.3063 36 45.7778 36H47.5556C48.0271 36 48.4792 35.8156 48.8126 35.4874C49.146 35.1593 49.3333 34.7141 49.3333 34.25V32.5H70.6667V34.25C70.6667 34.7141 70.854 35.1593 71.1874 35.4874C71.5208 35.8156 71.9729 36 72.4444 36H74.2222C74.6937 36 75.1459 35.8156 75.4793 35.4874C75.8127 35.1593 76 34.7141 76 34.25V20.25L72.3022 9.75Z" fill="#FFEB00"/>
<path d="M50.2222 10.625V9.625H49.5051L49.2751 10.3043L50.2222 10.625ZM69.7778 10.625L70.7249 10.3043L70.4949 9.625H69.7778V10.625ZM69.7778 27.25V28.25V27.25ZM69.7778 22V21V22ZM50.2222 27.25V28.25V27.25ZM50.2222 22V21V22ZM72.3022 9.75L71.3585 10.0806L71.359 10.0822L72.3022 9.75ZM47.6978 9.75L48.641 10.0822L48.6415 10.0806L47.6978 9.75ZM44 20.25L43.0568 19.9178L43 20.0791V20.25H44ZM44 34.25H43H44ZM49.3333 32.5V31.5H48.3333V32.5H49.3333ZM70.6667 32.5H71.6667V31.5H70.6667V32.5ZM76 20.25H77V20.0791L76.9432 19.9178L76 20.25ZM47.5556 18.5L48.5027 18.8207L51.1694 10.9457L50.2222 10.625L49.2751 10.3043L46.6084 18.1793L47.5556 18.5ZM50.2222 10.625V11.625H69.7778V10.625V9.625H50.2222V10.625ZM69.7778 10.625L68.8306 10.9457L71.4973 18.8207L72.4444 18.5L73.3916 18.1793L70.7249 10.3043L69.7778 10.625ZM69.7778 27.25V26.25C69.3307 26.25 68.9051 26.075 68.5937 25.7685L67.8922 26.4812L67.1906 27.1938C67.8794 27.8718 68.8104 28.25 69.7778 28.25V27.25ZM67.8922 26.4812L68.5937 25.7685C68.2828 25.4625 68.1111 25.0508 68.1111 24.625H67.1111H66.1111C66.1111 25.5915 66.5013 26.5152 67.1906 27.1938L67.8922 26.4812ZM67.1111 24.625H68.1111C68.1111 24.1992 68.2828 23.7875 68.5937 23.4815L67.8922 22.7688L67.1906 22.0562C66.5013 22.7348 66.1111 23.6585 66.1111 24.625H67.1111ZM67.8922 22.7688L68.5937 23.4815C68.9051 23.175 69.3307 23 69.7778 23V22V21C68.8104 21 67.8794 21.3782 67.1906 22.0562L67.8922 22.7688ZM69.7778 22V23C70.2248 23 70.6505 23.175 70.9619 23.4815L71.6634 22.7688L72.3649 22.0562C71.6761 21.3782 70.7452 21 69.7778 21V22ZM71.6634 22.7688L70.9619 23.4815C71.2727 23.7875 71.4444 24.1992 71.4444 24.625H72.4444H73.4444C73.4444 23.6585 73.0542 22.7348 72.3649 22.0562L71.6634 22.7688ZM72.4444 24.625H71.4444C71.4444 25.0508 71.2727 25.4625 70.9619 25.7685L71.6634 26.4812L72.3649 27.1938C73.0542 26.5152 73.4444 25.5915 73.4444 24.625H72.4444ZM71.6634 26.4812L70.9619 25.7685C70.6505 26.075 70.2248 26.25 69.7778 26.25V27.25V28.25C70.7452 28.25 71.6761 27.8718 72.3649 27.1938L71.6634 26.4812ZM50.2222 27.25V26.25C49.7752 26.25 49.3495 26.075 49.0381 25.7685L48.3366 26.4812L47.6351 27.1938C48.3239 27.8718 49.2548 28.25 50.2222 28.25V27.25ZM48.3366 26.4812L49.0381 25.7685C48.7273 25.4625 48.5556 25.0509 48.5556 24.625H47.5556H46.5556C46.5556 25.5915 46.9458 26.5152 47.6351 27.1938L48.3366 26.4812ZM47.5556 24.625H48.5556C48.5556 24.1992 48.7273 23.7875 49.0381 23.4815L48.3366 22.7688L47.6351 22.0562C46.9458 22.7348 46.5556 23.6585 46.5556 24.625H47.5556ZM48.3366 22.7688L49.0381 23.4815C49.3495 23.175 49.7752 23 50.2222 23V22V21C49.2548 21 48.3239 21.3782 47.6351 22.0562L48.3366 22.7688ZM50.2222 22V23C50.6693 23 51.0949 23.175 51.4063 23.4815L52.1078 22.7688L52.8094 22.0562C52.1206 21.3782 51.1896 21 50.2222 21V22ZM52.1078 22.7688L51.4063 23.4815C51.7172 23.7875 51.8889 24.1992 51.8889 24.625H52.8889H53.8889C53.8889 23.6585 53.4987 22.7348 52.8094 22.0562L52.1078 22.7688ZM52.8889 24.625H51.8889C51.8889 25.0509 51.7172 25.4625 51.4063 25.7685L52.1078 26.4812L52.8094 27.1938C53.4987 26.5152 53.8889 25.5915 53.8889 24.625H52.8889ZM52.1078 26.4812L51.4063 25.7685C51.0949 26.075 50.6693 26.25 50.2222 26.25V27.25V28.25C51.1896 28.25 52.1206 27.8718 52.8094 27.1938L52.1078 26.4812ZM72.3022 9.75L73.246 9.4194C72.7488 8.00004 71.3723 7 69.7778 7V8V9C70.5299 9 71.1445 9.46996 71.3585 10.0806L72.3022 9.75ZM69.7778 8V7H50.2222V8V9H69.7778V8ZM50.2222 8V7C48.6277 7 47.2512 8.00004 46.754 9.4194L47.6978 9.75L48.6415 10.0806C48.8555 9.46996 49.4701 9 50.2222 9V8ZM47.6978 9.75L46.7546 9.41783L43.0568 19.9178L44 20.25L44.9432 20.5822L48.641 10.0822L47.6978 9.75ZM44 20.25H43V34.25H44H45V20.25H44ZM44 34.25H43C43 34.9845 43.2965 35.6856 43.8192 36.2001L44.5207 35.4874L45.2222 34.7748C45.0781 34.6329 45 34.4438 45 34.25H44ZM44.5207 35.4874L43.8192 36.2001C44.3413 36.714 45.0461 37 45.7778 37V36V35C45.5665 35 45.3669 34.9172 45.2222 34.7748L44.5207 35.4874ZM45.7778 36V37H47.5556V36V35H45.7778V36ZM47.5556 36V37C48.2872 37 48.992 36.714 49.5142 36.2001L48.8126 35.4874L48.1111 34.7748C47.9664 34.9172 47.7669 35 47.5556 35V36ZM48.8126 35.4874L49.5142 36.2001C50.0368 35.6856 50.3333 34.9845 50.3333 34.25H49.3333H48.3333C48.3333 34.4438 48.2553 34.6329 48.1111 34.7748L48.8126 35.4874ZM49.3333 34.25H50.3333V32.5H49.3333H48.3333V34.25H49.3333ZM49.3333 32.5V33.5H70.6667V32.5V31.5H49.3333V32.5ZM70.6667 32.5H69.6667V34.25H70.6667H71.6667V32.5H70.6667ZM70.6667 34.25H69.6667C69.6667 34.9845 69.9632 35.6856 70.4858 36.2001L71.1874 35.4874L71.8889 34.7748C71.7447 34.6329 71.6667 34.4438 71.6667 34.25H70.6667ZM71.1874 35.4874L70.4858 36.2001C71.008 36.714 71.7128 37 72.4444 37V36V35C72.2331 35 72.0336 34.9172 71.8889 34.7748L71.1874 35.4874ZM72.4444 36V37H74.2222V36V35H72.4444V36ZM74.2222 36V37C74.9539 37 75.6587 36.714 76.1808 36.2001L75.4793 35.4874L74.7778 34.7748C74.6331 34.9172 74.4335 35 74.2222 35V36ZM75.4793 35.4874L76.1808 36.2001C76.7035 35.6856 77 34.9845 77 34.25H76H75C75 34.4438 74.9219 34.6329 74.7778 34.7748L75.4793 35.4874ZM76 34.25H77V20.25H76H75V34.25H76ZM76 20.25L76.9432 19.9178L73.2454 9.41783L72.3022 9.75L71.359 10.0822L75.0568 20.5822L76 20.25Z" fill="#344CB7" mask="url(#path-2-inside-1_115_496)"/>
</svg>
