<svg width="104" height="70" viewBox="0 0 104 70" fill="none" xmlns="http://www.w3.org/2000/svg">
<path d="M22.316 48.7783C26.77 48.7783 30.3813 52.3827 30.3813 56.8286C30.3813 61.2743 26.77 64.8787 22.316 64.8787C17.8621 64.8785 14.2521 61.2741 14.2521 56.8286C14.2521 52.3829 17.8621 48.7784 22.316 48.7783ZM72.9702 48.7783C77.4241 48.7784 81.034 52.3829 81.034 56.8286C81.034 61.2741 77.4241 64.8785 72.9702 64.8787C68.5162 64.8787 64.9049 61.2743 64.9049 56.8286C64.9049 52.3827 68.5162 48.7783 72.9702 48.7783ZM54.3679 18.0039L72.2461 31.3875L72.3653 31.4776L72.5122 31.5138L85.9369 34.8662C89.2101 35.6831 91.5932 38.4312 91.9884 41.709L92.0204 42.0284L92.0466 42.7046V57.483L89.2738 58.1753L86.7904 58.7935C86.8825 58.143 86.929 57.4865 86.9285 56.8286L86.9096 56.1115C86.5358 48.7504 80.438 42.8964 72.9702 42.8963C65.2613 42.8963 59.0119 49.1339 59.0119 56.8286C59.0119 58.0918 59.1811 59.3163 59.4975 60.4814H35.7873C36.0586 59.4822 36.2195 58.4559 36.2627 57.4206L36.2743 56.8271C36.2736 49.1332 30.0247 42.8963 22.316 42.8963C14.6072 42.8964 8.35763 49.1341 8.35763 56.8286C8.35763 56.8372 8.35763 56.8459 8.35763 56.8546L5.44238 53.9448V33.5223L6.29149 32.5079L17.3026 19.3187L18.4003 18.0039H54.3679ZM21.6035 25.578L14.2638 34.3713L13.2459 35.5891H57.8617L60.5966 32.8591L61.2045 32.2539L60.5167 31.7387L52.1286 25.4591L51.9309 25.311H21.8275L21.6035 25.578Z" fill="#79D7BE" stroke="#344CB7"/>
<path d="M80.6403 3.98828C87.5647 3.98828 93.178 9.59122 93.1781 16.5027C93.1781 23.4143 87.5647 29.0171 80.6403 29.0171C73.7158 29.0171 68.1025 23.4143 68.1025 16.5027C68.1025 9.59122 73.716 3.98843 80.6403 3.98828ZM85.2379 11.6366L79.3477 17.5462L76.3888 14.5929L76.1256 14.8555L74.3009 16.6783L74.0377 16.9411L79.3506 22.244L79.6137 21.9799L87.5918 13.9833L87.8535 13.7207L85.5009 11.3725L85.2379 11.6366Z" fill="#FFEB00" stroke="#344CB7" stroke-width="0.5"/>
</svg>
