<svg width="287" height="141" viewBox="0 0 287 141" fill="none" xmlns="http://www.w3.org/2000/svg">
<path d="M59.5621 47.0901C68.904 47.0901 76.4825 53.4559 76.4825 62.545C76.4825 71.6335 68.904 79 59.5621 79C50.2203 78.9986 42.6476 71.6328 42.6476 62.545C42.6483 53.4566 50.2203 47.0908 59.5621 47.0901ZM145.03 46.0901C154.372 46.0908 161.944 53.4566 161.944 62.545C161.944 71.6328 154.372 78.9986 145.03 79C135.688 79 128.11 71.6335 128.11 62.545C128.11 53.4559 135.688 46.0901 145.03 46.0901ZM124.023 2L126.183 3.57488L160.032 27.2779L160.153 27.3682L160.297 27.403L187.186 33.9447C194.261 35.666 199.353 34.5826 199.942 41.5542L200 42.9415V65.397L193.874 66.8887L171.764 68.3734C172.065 66.7808 172.228 65.1661 173.227 63.545L172.191 62.1854C171.464 48.2039 159.583 37.0874 145.03 37.0867C130.009 37.0867 106.5 37.0867 106.5 37.0867C106.5 37.0867 74.1153 37.0867 59.5621 37.0867C44.5409 37.0874 9.5 37.0867 9.5 37.0867L26.8751 29.5881L48.9373 4.8372L51.3688 2H124.023ZM58.7202 18.0039L41.0167 34.1735L40.0185 35.3392H130.448L130.662 35.1311L135.71 30.226L136.301 29.6435L135.631 29.1512L118.825 17.8931L118.632 17.7474H58.9415L58.7202 18.0039Z" fill="#FCF259"/>
<path d="M59.5621 47.0901C68.904 47.0901 76.4825 53.4559 76.4825 62.545C76.4825 71.6335 68.904 79 59.5621 79C50.2203 78.9986 42.6476 71.6328 42.6476 62.545C42.6483 53.4566 50.2203 47.0908 59.5621 47.0901ZM145.03 46.0901C154.372 46.0908 161.944 53.4566 161.944 62.545C161.944 71.6328 154.372 78.9986 145.03 79C135.688 79 128.11 71.6335 128.11 62.545C128.11 53.4559 135.688 46.0901 145.03 46.0901ZM124.023 2L126.183 3.57488L160.032 27.2779L160.153 27.3682L160.297 27.403L187.186 33.9447C194.261 35.666 199.353 34.5826 199.942 41.5542L200 42.9415V65.397L193.874 66.8887L171.764 68.3734C172.065 66.7808 172.228 65.1661 173.227 63.545L172.191 62.1854C171.464 48.2039 159.583 37.0874 145.03 37.0867C130.009 37.0867 106.5 37.0867 106.5 37.0867C106.5 37.0867 74.1153 37.0867 59.5621 37.0867C44.5409 37.0874 9.5 37.0867 9.5 37.0867L26.8751 29.5881L48.9373 4.8372L51.3688 2H124.023ZM58.7202 18.0039L41.0167 34.1735L40.0185 35.3392H130.448L130.662 35.1311L135.71 30.226L136.301 29.6435L135.631 29.1512L118.825 17.8931L118.632 17.7474H58.9415L58.7202 18.0039Z" fill="#FCF259"/>
<path d="M59.5621 47.0901C68.904 47.0901 76.4825 53.4559 76.4825 62.545C76.4825 71.6335 68.904 79 59.5621 79C50.2203 78.9986 42.6476 71.6328 42.6476 62.545C42.6483 53.4566 50.2203 47.0908 59.5621 47.0901ZM145.03 46.0901C154.372 46.0908 161.944 53.4566 161.944 62.545C161.944 71.6328 154.372 78.9986 145.03 79C135.688 79 128.11 71.6335 128.11 62.545C128.11 53.4559 135.688 46.0901 145.03 46.0901ZM124.023 2L126.183 3.57488L160.032 27.2779L160.153 27.3682L160.297 27.403L187.186 33.9447C194.261 35.666 199.353 34.5826 199.942 41.5542L200 42.9415V65.397L193.874 66.8887L171.764 68.3734C172.065 66.7808 172.228 65.1661 173.227 63.545L172.191 62.1854C171.464 48.2039 159.583 37.0874 145.03 37.0867C130.009 37.0867 106.5 37.0867 106.5 37.0867C106.5 37.0867 74.1153 37.0867 59.5621 37.0867C44.5409 37.0874 9.5 37.0867 9.5 37.0867L26.8751 29.5881L48.9373 4.8372L51.3688 2H124.023ZM58.7202 18.0039L41.0167 34.1735L40.0185 35.3392H130.448L130.662 35.1311L135.71 30.226L136.301 29.6435L135.631 29.1512L118.825 17.8931L118.632 17.7474H58.9415L58.7202 18.0039Z" stroke="#27548A" stroke-width="3"/>
<path d="M25.6562 80H16.25L19.9688 62.1562L7.34375 34.1875H17.375L23.0625 47.125C24.4167 50.2292 25.3229 52.4688 25.7812 53.8438C26.5521 52.4896 27.4479 51.0521 28.4688 49.5312L32.8125 43.4688L39.2812 34.1875H50.2188L29.2188 63.0312L25.6562 80Z" fill="#27548A"/>
<path d="M116.375 80H107.594L95.2188 49.2188L88.7812 80H80L89.5625 34.1875H98.375L110.781 64.8438L117.188 34.1875H125.938L116.375 80Z" fill="#27548A"/>
<path d="M22.6318 130H15.6494L14.3555 100.093L8.66699 130H2.02637L9.49707 94.209H19.9951L21.0938 119.282L33.3008 94.209H43.9209L36.4258 130H29.7119L36.7676 100.312L22.6318 130ZM46.0205 115.962C46.0205 113.846 46.3379 111.616 46.9727 109.272C47.8027 106.131 49.0641 103.405 50.7568 101.094C52.4658 98.7826 54.6143 96.9596 57.2021 95.625C59.79 94.2741 62.736 93.5986 66.04 93.5986C70.4671 93.5986 74.0397 94.974 76.7578 97.7246C79.4922 100.475 80.8594 104.121 80.8594 108.662C80.8594 112.438 79.9723 116.092 78.1982 119.624C76.4242 123.156 74.0153 125.874 70.9717 127.778C67.9281 129.683 64.4857 130.635 60.6445 130.635C57.3079 130.635 54.5085 129.878 52.2461 128.364C49.9837 126.851 48.3805 124.979 47.4365 122.749C46.4925 120.503 46.0205 118.241 46.0205 115.962ZM53.2959 115.815C53.2959 118.273 54.0446 120.332 55.542 121.992C57.0394 123.652 59.0088 124.482 61.4502 124.482C63.4359 124.482 65.3402 123.831 67.1631 122.529C69.0023 121.211 70.516 119.225 71.7041 116.572C72.9085 113.903 73.5107 111.307 73.5107 108.784C73.5107 105.968 72.7539 103.763 71.2402 102.168C69.7266 100.557 67.7979 99.751 65.4541 99.751C61.8571 99.751 58.9274 101.427 56.665 104.78C54.4189 108.133 53.2959 111.812 53.2959 115.815ZM82.5684 130L90.0635 94.209H102.295C104.948 94.209 106.803 94.2904 107.861 94.4531C109.619 94.6973 111.108 95.1855 112.329 95.918C113.55 96.6504 114.478 97.627 115.112 98.8477C115.747 100.068 116.064 101.419 116.064 102.9C116.064 104.886 115.511 106.611 114.404 108.076C113.298 109.525 111.589 110.623 109.277 111.372C111.117 111.877 112.549 112.78 113.574 114.082C114.616 115.368 115.137 116.825 115.137 118.452C115.137 120.601 114.526 122.643 113.306 124.58C112.085 126.501 110.4 127.884 108.252 128.73C106.104 129.577 103.166 130 99.4385 130H82.5684ZM94.3848 108.662H100C102.523 108.662 104.338 108.483 105.444 108.125C106.551 107.767 107.381 107.181 107.935 106.367C108.488 105.553 108.765 104.683 108.765 103.755C108.765 102.843 108.504 102.095 107.983 101.509C107.463 100.923 106.722 100.532 105.762 100.337C105.225 100.239 103.931 100.19 101.88 100.19H96.167L94.3848 108.662ZM91.1377 124.238H98.2422C101.221 124.238 103.215 124.051 104.224 123.677C105.249 123.286 106.063 122.651 106.665 121.772C107.284 120.894 107.593 119.966 107.593 118.989C107.593 117.801 107.153 116.825 106.274 116.06C105.396 115.278 103.931 114.888 101.88 114.888H93.0908L91.1377 124.238ZM118.433 130L125.928 94.209H133.276L125.806 130H118.433ZM132.861 130L140.356 94.209H147.705L141.479 124.019H159.692L158.447 130H132.861ZM162.915 130L170.41 94.209H177.759L170.288 130H162.915ZM205.762 130H198.901L189.233 105.952L184.204 130H177.344L184.814 94.209H191.699L201.392 118.159L206.396 94.209H213.232L205.762 130ZM213.403 130L220.898 94.209H230.542C233.228 94.209 234.945 94.2497 235.693 94.3311C237.174 94.4775 238.493 94.7786 239.648 95.2344C240.82 95.6901 241.878 96.333 242.822 97.1631C243.783 97.9769 244.604 98.9616 245.288 100.117C245.988 101.273 246.525 102.607 246.899 104.121C247.274 105.618 247.461 107.262 247.461 109.053C247.461 112.91 246.72 116.336 245.239 119.331C243.774 122.31 241.927 124.678 239.697 126.436C237.988 127.803 235.783 128.812 233.081 129.463C231.551 129.821 229.199 130 226.025 130H213.403ZM221.973 124.238H225.708C228.41 124.238 230.363 124.076 231.567 123.75C232.788 123.408 233.903 122.782 234.912 121.87C236.361 120.552 237.581 118.794 238.574 116.597C239.567 114.399 240.063 111.812 240.063 108.833C240.063 106.294 239.648 104.39 238.818 103.12C238.005 101.834 236.995 100.98 235.791 100.557C234.945 100.264 233.439 100.117 231.274 100.117H227.002L221.973 124.238Z" fill="#27548A"/>
<path d="M-1.63673e-10 86.0033L287 86.0015" stroke="#27548A" stroke-width="8"/>
<line x1="2.18557e-07" y1="135.5" x2="287" y2="135.5" stroke="#27548A" stroke-width="5"/>
<path d="M284.834 112.455C284.834 103.367 277.262 96.0007 267.92 96C258.579 96 251 103.366 251 112.455C251 121.543 258.579 128.91 267.92 128.91C277.262 128.909 284.834 121.543 284.834 112.455Z" fill="#FCF259" stroke="#27548A" stroke-width="3"/>
</svg>
