<svg width="77" height="67" viewBox="0 0 77 67" fill="none" xmlns="http://www.w3.org/2000/svg">
<path d="M16.108 13.0415H24.491C25.2495 13.0415 25.8481 13.2899 26.3402 13.7825C26.8338 14.2766 27.0828 14.8763 27.0846 15.6315C27.0863 16.3837 26.8389 16.9831 26.3418 17.479C25.9067 17.9128 25.3939 18.1553 24.7698 18.2068L24.494 18.2171H16.7428L16.5648 18.7245L13.0427 28.7595L12.6898 29.7667H32.3713C33.168 29.7667 33.9224 29.9147 34.6402 30.2105C35.2702 30.4702 35.8295 30.8228 36.3218 31.2696L36.528 31.4664L45.2832 40.1996C44.9177 40.6028 44.617 41.0611 44.383 41.5724C44.0734 42.2487 43.901 42.9703 43.8611 43.7305L43.8521 44.0589V44.0618C43.8523 45.6542 44.4197 47.0332 45.5427 48.1533C46.6655 49.2733 48.0469 49.8375 49.6415 49.8352C50.9234 49.8352 52.0889 49.4485 53.1145 48.6813C53.9534 48.0538 54.5598 47.2645 54.9326 46.3294C55.3556 46.3874 55.7732 46.4274 56.1857 46.4464C56.8067 46.4747 57.4425 46.4612 58.0912 46.4049L58.1119 46.4034L58.1327 46.4005C58.5284 46.3441 58.8973 46.2872 59.2389 46.2304C59.4233 46.1998 59.6142 46.1615 59.8099 46.1165L60.4134 45.9597L60.4223 45.9582C61.3668 45.6755 62.1931 45.752 62.9507 46.1519C63.326 46.3502 63.5714 46.5839 63.7263 46.8384C63.8808 47.0921 63.9725 47.4115 63.9725 47.8249V60.7858C63.9725 61.9812 63.5616 62.9745 62.7283 63.8078C61.8962 64.6394 60.9028 65.0477 59.7032 65.0459C58.5011 65.0439 57.5066 64.6344 56.6764 63.8063C55.9503 63.0818 55.5444 62.2313 55.4516 61.2251L55.4308 60.7843V58.3568H13.6715V60.7858C13.6715 61.9812 13.2606 62.9745 12.4274 63.8078C11.6993 64.5354 10.8477 64.9397 9.84261 65.028L9.40223 65.0459C8.20397 65.0459 7.2098 64.6368 6.37704 63.8063C5.54444 62.9758 5.13201 61.9838 5.12988 60.7858V36.8699C5.12988 36.5161 5.15464 36.1614 5.20551 35.8063C5.25501 35.4611 5.32835 35.1474 5.42205 34.8642L12.1293 15.8816L12.1337 15.8682C12.4179 15.0183 12.9197 14.3426 13.6553 13.8225C14.3022 13.365 15.0037 13.1098 15.7729 13.0533L16.108 13.0415ZM19.4639 38.287C17.8614 38.282 16.477 38.8485 15.3591 39.9763C14.2463 41.099 13.6793 42.4736 13.6715 44.0574C13.6638 45.6472 14.2334 47.0274 15.3621 48.1533C16.4898 49.2781 17.8707 49.8442 19.4609 49.8352L19.4653 49.8366L19.4639 49.8352C21.0584 49.8345 22.4389 49.2701 23.5612 48.1533C24.6852 47.0347 25.2527 45.6551 25.2503 44.0604C25.2477 42.4674 24.6819 41.0898 23.5627 39.9733C22.4436 38.8571 21.062 38.2923 19.4639 38.287Z" fill="#79D7BE" stroke="#344CB7"/>
<path d="M43.0921 2.69141H52.909C54.1359 2.69171 55.3154 3.14748 56.2205 3.96497L56.3984 4.13356L71.0335 18.7318C72.1045 19.8006 72.7063 21.25 72.7063 22.7613C72.7063 24.1784 72.1769 25.541 71.2277 26.5865L71.0335 26.7907L60.4187 37.3788C59.3473 38.4471 57.8942 39.0474 56.3792 39.0474C54.9584 39.0474 53.5924 38.5194 52.5443 37.5725L52.3396 37.3788L37.7046 22.7805C36.779 21.8574 36.2591 20.6054 36.2588 19.2999V9.50758C36.2588 7.69978 36.9792 5.96666 38.2608 4.6884C39.4623 3.48981 41.0648 2.78365 42.754 2.70034L43.0921 2.69141ZM45.9393 7.80354C44.7901 7.80324 43.6827 8.23553 42.84 9.015C41.9973 9.79447 41.4819 10.8643 41.3956 12.0075L41.3941 12.0223V12.0385L41.3838 12.3225V12.3477C41.3838 13.2463 41.6514 14.1253 42.152 14.8727C42.6524 15.6196 43.3635 16.2017 44.1955 16.5457C45.0276 16.8895 45.9441 16.9798 46.8277 16.8045C47.7113 16.6291 48.5231 16.1961 49.1603 15.5605C49.7974 14.9249 50.2316 14.1152 50.4074 13.2338C50.5831 12.3524 50.4926 11.4382 50.1479 10.6082C49.8031 9.77826 49.2195 9.06892 48.4707 8.56983C47.8152 8.13283 47.0585 7.87321 46.276 7.81535L45.9393 7.80354Z" fill="#FFEB00" stroke="#344CB7"/>
</svg>
