<svg width="317" height="211" viewBox="0 0 317 211" fill="none" xmlns="http://www.w3.org/2000/svg">
<path d="M74.5621 81.0901C83.904 81.0901 91.4825 87.4559 91.4825 96.545C91.4825 105.633 83.904 113 74.5621 113C65.2203 112.999 57.6476 105.633 57.6476 96.545C57.6483 87.4566 65.2203 81.0908 74.5621 81.0901ZM160.03 80.0901C169.372 80.0908 176.944 87.4566 176.944 96.545C176.944 105.633 169.372 112.999 160.03 113C150.688 113 143.11 105.633 143.11 96.545C143.11 87.4559 150.688 80.0901 160.03 80.0901ZM139.023 36L141.183 37.5749L175.032 61.2779L175.153 61.3682L175.297 61.403L202.186 67.9447C209.261 69.666 214.353 68.5826 214.942 75.5542L215 76.9415V99.397L208.874 100.889L186.764 102.373C187.065 100.781 187.228 99.1661 188.227 97.545L187.191 96.1854C186.464 82.2039 174.583 71.0874 160.03 71.0867C145.009 71.0867 121.5 71.0867 121.5 71.0867C121.5 71.0867 89.1153 71.0867 74.5621 71.0867C59.5409 71.0874 24.5 71.0867 24.5 71.0867L41.8751 63.5881L63.9373 38.8372L66.3688 36H139.023ZM73.7202 52.0039L56.0167 68.1735L55.0185 69.3392H145.448L145.662 69.1311L150.71 64.226L151.301 63.6435L150.631 63.1512L133.825 51.8931L133.632 51.7474H73.9415L73.7202 52.0039Z" fill="#FCF259"/>
<path d="M74.5621 81.0901C83.904 81.0901 91.4825 87.4559 91.4825 96.545C91.4825 105.633 83.904 113 74.5621 113C65.2203 112.999 57.6476 105.633 57.6476 96.545C57.6483 87.4566 65.2203 81.0908 74.5621 81.0901ZM160.03 80.0901C169.372 80.0908 176.944 87.4566 176.944 96.545C176.944 105.633 169.372 112.999 160.03 113C150.688 113 143.11 105.633 143.11 96.545C143.11 87.4559 150.688 80.0901 160.03 80.0901ZM139.023 36L141.183 37.5749L175.032 61.2779L175.153 61.3682L175.297 61.403L202.186 67.9447C209.261 69.666 214.353 68.5826 214.942 75.5542L215 76.9415V99.397L208.874 100.889L186.764 102.373C187.065 100.781 187.228 99.1661 188.227 97.545L187.191 96.1854C186.464 82.2039 174.583 71.0874 160.03 71.0867C145.009 71.0867 121.5 71.0867 121.5 71.0867C121.5 71.0867 89.1153 71.0867 74.5621 71.0867C59.5409 71.0874 24.5 71.0867 24.5 71.0867L41.8751 63.5881L63.9373 38.8372L66.3688 36H139.023ZM73.7202 52.0039L56.0167 68.1735L55.0185 69.3392H145.448L145.662 69.1311L150.71 64.226L151.301 63.6435L150.631 63.1512L133.825 51.8931L133.632 51.7474H73.9415L73.7202 52.0039Z" fill="#FCF259"/>
<path d="M74.5621 81.0901C83.904 81.0901 91.4825 87.4559 91.4825 96.545C91.4825 105.633 83.904 113 74.5621 113C65.2203 112.999 57.6476 105.633 57.6476 96.545C57.6483 87.4566 65.2203 81.0908 74.5621 81.0901ZM160.03 80.0901C169.372 80.0908 176.944 87.4566 176.944 96.545C176.944 105.633 169.372 112.999 160.03 113C150.688 113 143.11 105.633 143.11 96.545C143.11 87.4559 150.688 80.0901 160.03 80.0901ZM139.023 36L141.183 37.5749L175.032 61.2779L175.153 61.3682L175.297 61.403L202.186 67.9447C209.261 69.666 214.353 68.5826 214.942 75.5542L215 76.9415V99.397L208.874 100.889L186.764 102.373C187.065 100.781 187.228 99.1661 188.227 97.545L187.191 96.1854C186.464 82.2039 174.583 71.0874 160.03 71.0867C145.009 71.0867 121.5 71.0867 121.5 71.0867C121.5 71.0867 89.1153 71.0867 74.5621 71.0867C59.5409 71.0874 24.5 71.0867 24.5 71.0867L41.8751 63.5881L63.9373 38.8372L66.3688 36H139.023ZM73.7202 52.0039L56.0167 68.1735L55.0185 69.3392H145.448L145.662 69.1311L150.71 64.226L151.301 63.6435L150.631 63.1512L133.825 51.8931L133.632 51.7474H73.9415L73.7202 52.0039Z" stroke="#27548A" stroke-width="3"/>
<path d="M40.6562 114H31.25L34.9688 96.1562L22.3438 68.1875H32.375L38.0625 81.125C39.4167 84.2292 40.3229 86.4688 40.7812 87.8438C41.5521 86.4896 42.4479 85.0521 43.4688 83.5312L47.8125 77.4688L54.2812 68.1875H65.2188L44.2188 97.0312L40.6562 114ZM131.375 114H122.594L110.219 83.2188L103.781 114H95L104.562 68.1875H113.375L125.781 98.8438L132.188 68.1875H140.938L131.375 114Z" fill="#27548A"/>
<path d="M37.6318 164H30.6494L29.3555 134.093L23.667 164H17.0264L24.4971 128.209H34.9951L36.0938 153.282L48.3008 128.209H58.9209L51.4258 164H44.7119L51.7676 134.312L37.6318 164ZM61.0205 149.962C61.0205 147.846 61.3379 145.616 61.9727 143.272C62.8027 140.131 64.0641 137.405 65.7568 135.094C67.4658 132.783 69.6143 130.96 72.2021 129.625C74.79 128.274 77.736 127.599 81.04 127.599C85.4671 127.599 89.0397 128.974 91.7578 131.725C94.4922 134.475 95.8594 138.121 95.8594 142.662C95.8594 146.438 94.9723 150.092 93.1982 153.624C91.4242 157.156 89.0153 159.874 85.9717 161.778C82.9281 163.683 79.4857 164.635 75.6445 164.635C72.3079 164.635 69.5085 163.878 67.2461 162.364C64.9837 160.851 63.3805 158.979 62.4365 156.749C61.4925 154.503 61.0205 152.241 61.0205 149.962ZM68.2959 149.815C68.2959 152.273 69.0446 154.332 70.542 155.992C72.0394 157.652 74.0088 158.482 76.4502 158.482C78.4359 158.482 80.3402 157.831 82.1631 156.529C84.0023 155.211 85.516 153.225 86.7041 150.572C87.9085 147.903 88.5107 145.307 88.5107 142.784C88.5107 139.968 87.7539 137.763 86.2402 136.168C84.7266 134.557 82.7979 133.751 80.4541 133.751C76.8571 133.751 73.9274 135.427 71.665 138.78C69.4189 142.133 68.2959 145.812 68.2959 149.815ZM97.5684 164L105.063 128.209H117.295C119.948 128.209 121.803 128.29 122.861 128.453C124.619 128.697 126.108 129.186 127.329 129.918C128.55 130.65 129.478 131.627 130.112 132.848C130.747 134.068 131.064 135.419 131.064 136.9C131.064 138.886 130.511 140.611 129.404 142.076C128.298 143.525 126.589 144.623 124.277 145.372C126.117 145.877 127.549 146.78 128.574 148.082C129.616 149.368 130.137 150.825 130.137 152.452C130.137 154.601 129.526 156.643 128.306 158.58C127.085 160.501 125.4 161.884 123.252 162.73C121.104 163.577 118.166 164 114.438 164H97.5684ZM109.385 142.662H115C117.523 142.662 119.338 142.483 120.444 142.125C121.551 141.767 122.381 141.181 122.935 140.367C123.488 139.553 123.765 138.683 123.765 137.755C123.765 136.843 123.504 136.095 122.983 135.509C122.463 134.923 121.722 134.532 120.762 134.337C120.225 134.239 118.931 134.19 116.88 134.19H111.167L109.385 142.662ZM106.138 158.238H113.242C116.221 158.238 118.215 158.051 119.224 157.677C120.249 157.286 121.063 156.651 121.665 155.772C122.284 154.894 122.593 153.966 122.593 152.989C122.593 151.801 122.153 150.825 121.274 150.06C120.396 149.278 118.931 148.888 116.88 148.888H108.091L106.138 158.238ZM133.433 164L140.928 128.209H148.276L140.806 164H133.433ZM147.861 164L155.356 128.209H162.705L156.479 158.019H174.692L173.447 164H147.861ZM177.915 164L185.41 128.209H192.759L185.288 164H177.915ZM220.762 164H213.901L204.233 139.952L199.204 164H192.344L199.814 128.209H206.699L216.392 152.159L221.396 128.209H228.232L220.762 164ZM228.403 164L235.898 128.209H245.542C248.228 128.209 249.945 128.25 250.693 128.331C252.174 128.478 253.493 128.779 254.648 129.234C255.82 129.69 256.878 130.333 257.822 131.163C258.783 131.977 259.604 132.962 260.288 134.117C260.988 135.273 261.525 136.607 261.899 138.121C262.274 139.618 262.461 141.262 262.461 143.053C262.461 146.91 261.72 150.336 260.239 153.331C258.774 156.31 256.927 158.678 254.697 160.436C252.988 161.803 250.783 162.812 248.081 163.463C246.551 163.821 244.199 164 241.025 164H228.403ZM236.973 158.238H240.708C243.41 158.238 245.363 158.076 246.567 157.75C247.788 157.408 248.903 156.782 249.912 155.87C251.361 154.552 252.581 152.794 253.574 150.597C254.567 148.399 255.063 145.812 255.063 142.833C255.063 140.294 254.648 138.39 253.818 137.12C253.005 135.834 251.995 134.98 250.791 134.557C249.945 134.264 248.439 134.117 246.274 134.117H242.002L236.973 158.238Z" fill="#27548A"/>
<path d="M15 120.003L302 120.001" stroke="#27548A" stroke-width="8"/>
<line x1="15" y1="169.5" x2="302" y2="169.5" stroke="#27548A" stroke-width="5"/>
<path d="M299.834 146.455C299.834 137.367 292.262 130.001 282.92 130C273.579 130 266 137.366 266 146.455C266 155.543 273.579 162.91 282.92 162.91C292.262 162.909 299.834 155.543 299.834 146.455Z" fill="#FCF259" stroke="#27548A" stroke-width="3"/>
</svg>
